<svg id="Ebene_1" data-name="Ebene 1" xmlns="http://www.w3.org/2000/svg" viewBox="0 0 217.19 217.09"><defs><style>.cls-1{fill:#7dacc5;}</style></defs><title>1A</title><path class="cls-1" d="M106,6.71V31A74.39,74.39,0,0,0,43.6,77l-24.45-8A100.94,100.94,0,0,1,106,6.71Z"/><path class="cls-1" d="M205.86,69.05,181.41,77A74.41,74.41,0,0,0,119,31V6.71A100.93,100.93,0,0,1,205.86,69.05Z"/><path class="cls-1" d="M213.41,107.4a100.64,100.64,0,0,1-35.93,77.18l-16.68-23a74.47,74.47,0,0,0,24.44-72.15l24.78-8A100.63,100.63,0,0,1,213.41,107.4Z"/><path class="cls-1" d="M167,192.33a100.89,100.89,0,0,1-108.95,0l16.81-23.14a74.39,74.39,0,0,0,75.33,0Z"/><path class="cls-1" d="M64.21,161.61l-16.69,23A101,101,0,0,1,15,81.42l24.78,8a74.46,74.46,0,0,0,24.44,72.14Z"/><path class="cls-1" d="M99.47,64h25.22l24,78.81H126.63l-3.88-16.73H100.69l-3.88,16.73H75.47Zm5,46H119l-1.33-5.45c-1.94-7.52-3.88-17.1-5.82-25h-.49c-1.69,8-3.63,17.46-5.57,25Z"/></svg>