<svg id="Ebene_1" data-name="Ebene 1" xmlns="http://www.w3.org/2000/svg" viewBox="0 0 216.38 242.34"><defs><style>.cls-1,.cls-7{fill:#7dacc5;}.cls-1,.cls-3,.cls-4{opacity:0.7;}.cls-1,.cls-2{isolation:isolate;}.cls-2,.cls-6{fill:#fff;}.cls-4,.cls-5{fill:none;}.cls-5{stroke:#fff;stroke-width:14px;}</style></defs><title>2a</title><circle class="cls-1" cx="108.19" cy="108.19" r="108.19"/><circle class="cls-2" cx="108.19" cy="105.68" r="79.75"/><circle class="cls-3" cx="-58.54" cy="29.37"/><line class="cls-4" x1="101.97" y1="241.96" x2="101.97" y2="242.34"/><line class="cls-5" x1="108.19" x2="108.19" y2="105.68"/><line class="cls-5" x1="3.72" y1="73.02" x2="108.19" y2="106.96"/><line class="cls-5" x1="37.69" y1="203.99" x2="108.19" y2="106.96"/><line class="cls-5" x1="178.59" y1="203.85" x2="108.19" y2="106.96"/><line class="cls-5" x1="212.65" y1="73.02" x2="108.19" y2="106.96"/><polygon class="cls-6" points="108.78 0.5 212.25 0.5 212.25 75.98 114.93 83.2 108.78 0.5"/><g class="cls-3"><path class="cls-7" d="M120,128.91H96.33l-4.16,17.94H69.28L95,62.35h27l25.74,84.5H124.15Zm-4-17.29-1.43-5.85c-2.08-8.06-4.16-18.33-6.24-26.78h-.52c-1.82,8.58-3.9,18.72-6,26.78l-1.43,5.85Z" transform="translate(-0.81 -0.71)"/></g></svg>