<svg id="Ebene_1" data-name="Ebene 1" xmlns="http://www.w3.org/2000/svg" viewBox="0 0 217.19 217.09"><defs><style>.cls-1{fill:#7dacc5;}</style></defs><title>2B</title><path class="cls-1" d="M106,6.71V31A74.39,74.39,0,0,0,43.6,77l-24.45-8A100.94,100.94,0,0,1,106,6.71Z"/><path class="cls-1" d="M213.41,107.4a100.64,100.64,0,0,1-35.93,77.18l-16.68-23a74.47,74.47,0,0,0,24.44-72.15l24.78-8A100.63,100.63,0,0,1,213.41,107.4Z"/><path class="cls-1" d="M167,192.33a100.89,100.89,0,0,1-108.95,0l16.81-23.14a74.39,74.39,0,0,0,75.33,0Z"/><path class="cls-1" d="M64.21,161.61l-16.69,23A101,101,0,0,1,15,81.42l24.78,8a74.46,74.46,0,0,0,24.44,72.14Z"/><path class="cls-1" d="M85.41,64h28.37c16.49,0,29.83,4.12,29.83,19.64,0,6.79-3.88,14.55-10,17v.48c7.52,2.18,13.58,8,13.58,18.43,0,16.25-14.06,23.28-31,23.28H85.41Zm27.88,30.8c6.79,0,9.95-3.16,9.95-8S120.08,80,113.29,80h-7v14.8Zm1.46,32c8.24,0,12.12-2.91,12.12-8.73s-3.88-8-12.12-8h-8.49v16.74Z"/></svg>