<svg id="Ebene_1" data-name="Ebene 1" xmlns="http://www.w3.org/2000/svg" viewBox="0 0 217.19 217.09"><defs><style>.cls-1{fill:#7dacc5;}</style></defs><title>3A</title><path class="cls-1" d="M106,5V29.26a74.38,74.38,0,0,0-62.38,46l-24.45-8A101,101,0,0,1,106,5Z"/><path class="cls-1" d="M167,190.62a100.89,100.89,0,0,1-108.95,0l16.81-23.13a74.39,74.39,0,0,0,75.33,0Z"/><path class="cls-1" d="M64.21,159.9l-16.69,23A101,101,0,0,1,15,79.72l24.78,8A74.44,74.44,0,0,0,64.21,159.9Z"/><path class="cls-1" d="M99.47,62.28h25.22l24,78.81H126.63l-3.88-16.74H100.69l-3.88,16.74H75.47Zm5,46H119l-1.33-5.46c-1.94-7.51-3.88-17.09-5.82-25h-.49c-1.69,8-3.63,17.46-5.57,25Z"/><path class="cls-1" d="M106,5V29.26a74.38,74.38,0,0,0-62.38,46l-24.45-8A101,101,0,0,1,106,5Z"/><path class="cls-1" d="M167,190.62a100.89,100.89,0,0,1-108.95,0l16.81-23.13a74.39,74.39,0,0,0,75.33,0Z"/><path class="cls-1" d="M64.21,159.9l-16.69,23A101,101,0,0,1,15,79.72l24.78,8A74.44,74.44,0,0,0,64.21,159.9Z"/><path class="cls-1" d="M99.47,62.28h25.22l24,78.81H126.63l-3.88-16.74H100.69l-3.88,16.74H75.47Zm5,46H119l-1.33-5.46c-1.94-7.51-3.88-17.09-5.82-25h-.49c-1.69,8-3.63,17.46-5.57,25Z"/></svg>