<svg id="Ebene_1" data-name="Ebene 1" xmlns="http://www.w3.org/2000/svg" viewBox="0 0 217.19 217.09"><defs><style>.cls-1{fill:#7dacc5;}</style></defs><title>3C</title><path class="cls-1" d="M106,6.71V31A74.39,74.39,0,0,0,43.6,77l-24.45-8A100.94,100.94,0,0,1,106,6.71Z"/><path class="cls-1" d="M167,192.33a100.89,100.89,0,0,1-108.95,0l16.81-23.14a74.39,74.39,0,0,0,75.33,0Z"/><path class="cls-1" d="M64.21,161.61l-16.69,23A101,101,0,0,1,15,81.42l24.78,8a74.46,74.46,0,0,0,24.44,72.14Z"/><path class="cls-1" d="M82,104c0-26.43,18.19-41.46,38.08-41.46A34.82,34.82,0,0,1,144.58,73L133.66,86.29c-3.87-3.39-7.76-5.82-13.09-5.82-9.21,0-17.22,8.49-17.22,22.79,0,14.8,6.79,23,17,23,6.06,0,10.91-3.15,14.31-6.79l10.91,13.1a33.24,33.24,0,0,1-26,11.64C99.47,144.25,82,130.91,82,104Z"/></svg>