<svg id="Ebene_1" data-name="Ebene 1" xmlns="http://www.w3.org/2000/svg" viewBox="0 0 217.19 217.09"><defs><style>.cls-1{fill:#7dacc5;}</style></defs><title>1?</title><path class="cls-1" d="M106,6.71V31A74.39,74.39,0,0,0,43.6,77l-24.45-8A100.94,100.94,0,0,1,106,6.71Z"/><path class="cls-1" d="M205.86,69.05,181.41,77A74.41,74.41,0,0,0,119,31V6.71A100.93,100.93,0,0,1,205.86,69.05Z"/><path class="cls-1" d="M213.41,107.4a100.64,100.64,0,0,1-35.93,77.18l-16.68-23a74.47,74.47,0,0,0,24.44-72.15l24.78-8A100.63,100.63,0,0,1,213.41,107.4Z"/><path class="cls-1" d="M167,192.33a100.89,100.89,0,0,1-108.95,0l16.81-23.14a74.39,74.39,0,0,0,75.33,0Z"/><path class="cls-1" d="M64.21,161.61l-16.69,23A101,101,0,0,1,15,81.42l24.78,8a74.46,74.46,0,0,0,24.44,72.14Z"/><path class="cls-1" d="M109.9,82.9c0-4.37-3.15-6.07-6.79-6.07-4.12,0-6.79,2.19-9.94,5.09L81.77,71.5c5.94-6.79,14.31-11.4,24-11.4,13.34,0,24,6.06,24,21.34,0,14.55-17.71,18.43-16.49,31.77H95.11C92.68,97.44,109.9,90.65,109.9,82.9ZM92,131.64c0-7,5.09-12.61,12.12-12.61s12.13,5.57,12.13,12.61-5.1,12.61-12.13,12.61S92,138.67,92,131.64Z"/></svg>